HIERARCHY
ROOT Root
{
	OFFSET 0.00000 0.00000 0.00000
	CHANNELS 6 Xposition Yposition Zposition Zrotation Xrotation Yrotation
	JOINT Hips
	{
		OFFSET 0 0 0	
		CHANNELS 3 Zrotation Xrotation Yrotation
		JOINT Spine
		{
			OFFSET 0 4 0	
			CHANNELS 3 Zrotation Xrotation Yrotation
			JOINT Spine1
			{
				OFFSET 0 19.4 0	
				CHANNELS 3 Zrotation Xrotation Yrotation
				JOINT Spine2
				{
					OFFSET 0 16.6 0	
					CHANNELS 3 Zrotation Xrotation Yrotation
					JOINT LeftCollar
					{
						OFFSET 0 10 0	
						CHANNELS 3 Zrotation Xrotation Yrotation
						JOINT LeftArm
						{
							OFFSET 15.6 -2 3	
							CHANNELS 3 Zrotation Xrotation Yrotation
							JOINT LeftForeArm
							{
								OFFSET 3.5 -27 -1	
								CHANNELS 3 Zrotation Xrotation Yrotation
								JOINT LeftHand
								{
									OFFSET 1 -27 1	
									CHANNELS 3 Zrotation Xrotation Yrotation
									End Site
									{
										OFFSET 0 -15 0
									}
								}
							}
						}
					}
					JOINT RightCollar
					{
						OFFSET 0 10 0	
						CHANNELS 3 Zrotation Xrotation Yrotation
						JOINT RightArm
						{
							OFFSET -15.6 -2 3	
							CHANNELS 3 Zrotation Xrotation Yrotation
							JOINT RightForeArm
							{
								OFFSET -3.5 -27 -1	
								CHANNELS 3 Zrotation Xrotation Yrotation
								JOINT RightHand
								{
									OFFSET -1 -27 1	
									CHANNELS 3 Zrotation Xrotation Yrotation
									End Site
									{
										OFFSET 0 -15 0
									}
								}
							}
						}
					}
					JOINT Neck
					{
						OFFSET 0 10 0	
						CHANNELS 3 Zrotation Xrotation Yrotation
						JOINT Head
						{
							OFFSET 0 12.7 3	
							CHANNELS 3 Zrotation Xrotation Yrotation
							End Site
							{
								OFFSET 0 12.7 3
							}
						}
					}
				}
			}
		}
	}
	JOINT LeftHip
	{
		OFFSET 0 0 0	
		CHANNELS 3 Zrotation Xrotation Yrotation
		JOINT LeftUpLeg
		{
			OFFSET 8.8 -6 0	
			CHANNELS 3 Zrotation Xrotation Yrotation
			JOINT LeftLeg
			{
				OFFSET 0 -39 2	
				CHANNELS 3 Zrotation Xrotation Yrotation
				JOINT LeftFoot
				{
					OFFSET 0 -43 -2	
					CHANNELS 3 Zrotation Xrotation Yrotation
					JOINT LeftFootFront
					{
						OFFSET 0 -7 8.5	
						CHANNELS 3 Zrotation Xrotation Yrotation
						End Site
						{
							OFFSET 0 -0.5 9
						}
					}
				}
				JOINT LeftHeel
				{
					OFFSET 0 -43 -2	
					CHANNELS 3 Zrotation Xrotation Yrotation
					End Site
					{
						OFFSET 0 -7.5 -5
					}
				}
			}
		}
	}
	JOINT RightHip
	{
		OFFSET 0 0 0	
		CHANNELS 3 Zrotation Xrotation Yrotation
		JOINT RightUpLeg
		{
			OFFSET -8.8 -6 0	
			CHANNELS 3 Zrotation Xrotation Yrotation
			JOINT RightLeg
			{
				OFFSET 0 -39 2	
				CHANNELS 3 Zrotation Xrotation Yrotation
				JOINT RightFoot
				{
					OFFSET 0 -43 -2	
					CHANNELS 3 Zrotation Xrotation Yrotation
					JOINT RightFootFront
					{
						OFFSET 0 -7 8.5	
						CHANNELS 3 Zrotation Xrotation Yrotation
						End Site
						{
							OFFSET 0 -0.5 9
						}
					}
				}
				JOINT RightHeel
				{
					OFFSET 0 -43 -2	
					CHANNELS 3 Zrotation Xrotation Yrotation
					End Site
					{
						OFFSET 0 -7.5 -5
					}
				}
			}
		}
	}
}
MOTION
Frames: 14
Frame Time: 0.05
2.242 94.648 5.1962 -0 0 -0 -1.7181 2.0256 33.607 0.61689 -1.6072 -5.8711 0.61689 -1.6072 -5.8711 0.52929 -1.3459 -4.9327 -0 0 -0 -0.30782 2.4707 -2.989 -0.42457 0.53755 -5.3511 -3.7755 -12.18 5.4475 -0 0 -0 -3.7474 3.4115 -10.273 0.78698 -0.11892 -11.088 3.3834 -4.3631 3.0374 0.30923 0.25738 -0.6716 0.85957 -1.1161 -5.5965 -1.7181 2.0256 33.607 -5.0227 3.387 -10.341 -3.2878 -4.0575 3.7435 -0 0 -0 8.4157e-07 -2.7797 -5.1335e-07 -0 0 -0 -1.7181 2.0256 33.607 -8.8515 -12.208 -18.745 -3.8411 7.7743 0.78165 -0 0 -0 0 0 -5.8697e-07 -0 0 -0 
2.5235 94.701 5.3921 -0 0 -0 -1.7367 1.4444 33.612 0.66398 -1.3009 -6.0938 0.66398 -1.3009 -6.0938 0.56708 -1.0882 -5.1196 -0 0 -0 0.25113 2.0807 -2.6959 -0.031547 1.0315 -5.6298 -3.2388 -11.535 5.1573 -0 0 -0 -2.8888 3.4168 -11.285 1.1403 -0.83806 -10.599 2.8302 -3.6312 3.8942 0.093002 -0.043557 -0.10797 0.65584 -1.1398 -5.2259 -1.7367 1.4444 33.612 -5.041 3.585 -10.07 -2.9342 -2.9815 3.5038 -0 0 -0 9.1534e-07 -3.4978 2.0032e-06 -0 0 -0 -1.7367 1.4444 33.612 -8.4468 -11.654 -18.293 -3.8853 7.7306 0.68921 -0 0 -0 0 0 -8.0041e-08 -0 0 -0 
2.7857 94.754 5.6496 -0 0 -0 -1.7147 0.99669 33.294 0.82264 -1.0609 -6.3214 0.82264 -1.0609 -6.3214 0.69895 -0.88514 -5.3109 -0 0 -0 0.66131 1.9978 -2.8055 0.13079 1.2006 -5.5738 -2.8115 -10.794 4.833 -0 0 -0 -2.4783 2.7912 -11.353 1.2118 -1.1944 -10.503 2.976 -2.9863 3.8908 -0.66676 -0.44538 0.43905 -0.006331 -1.2668 -4.8825 -1.7147 0.99669 33.294 -5.1916 4.0678 -9.7696 -2.594 -2.1551 3.3882 -0 0 -0 -8.3018e-07 -4.3611 6.3588e-07 -0 0 -0 -1.7147 0.99669 33.294 -8.113 -11.089 -17.579 -3.7403 7.9026 0.74971 -0 0 -0 -0 0 3.4685e-07 -0 0 -0 
2.9758 94.803 5.9381 -0 0 -0 -1.4334 0.82587 32.805 0.90182 -0.94172 -6.5765 0.90182 -0.94172 -6.5765 0.76487 -0.78418 -5.5251 -0 0 -0 1.185 2.3047 -2.9981 -0.20068 0.86058 -5.2949 -2.3293 -9.7533 4.4868 -0 0 -0 -2.3958 2.1577 -10.529 1.288 -1.534 -10.729 3.1824 -2.7575 3.5796 -1.5386 -1.0912 0.9088 -0.87215 -1.7218 -4.6375 -1.4334 0.82587 32.805 -5.411 4.139 -9.5657 -2.6062 -1.4517 3.4328 -0 0 -0 -8.1415e-07 -4.8512 9.5357e-07 -0 0 -0 -1.4334 0.82587 32.805 -8.3386 -10.626 -16.684 -3.461 8.6608 0.94608 -0 0 -0 -0 0 7.4705e-07 -0 0 -0 
3.0635 94.85 6.2397 -0 0 -0 -1.1468 0.67165 32.255 1.1051 -0.75646 -6.809 1.1051 -0.75646 -6.809 0.93446 -0.62668 -5.7205 -0 0 -0 1.1525 2.2514 -2.937 -0.4768 0.3051 -5.1201 -1.92 -8.9391 4.3545 -0 0 -0 -2.8307 1.2502 -9.4424 1.6447 -2.0699 -10.989 2.8368 -2.5549 3.1758 -2.5073 -1.5856 1.3399 -1.7191 -1.9539 -4.4057 -1.1468 0.67165 32.255 -5.5995 4.4215 -9.2769 -2.447 -1.1051 3.4732 -0 0 -0 2.3143e-08 -5.2117 5.0851e-07 -0 0 -0 -1.1468 0.67165 32.255 -8.7838 -10.348 -15.787 -2.9745 9.6436 1.0212 -0 0 -0 0 0 -6.1365e-07 -0 0 -0 
3.0485 94.902 6.5538 -0 0 -0 -0.99778 0.72409 31.758 1.2474 -0.7914 -6.9632 1.2474 -0.7914 -6.9632 1.0544 -0.65468 -5.8502 -0 0 -0 1.0363 2.5431 -3.2137 -0.62199 -0.33836 -4.5957 -1.6639 -8.53 4.2615 -0 0 -0 -3.1884 0.66747 -8.6562 2.1442 -2.6662 -11.045 2.4143 -2.5501 2.8058 -3.1124 -0.71275 1.7449 -2.1148 -1.0456 -4.1331 -0.99778 0.72409 31.758 -5.6286 4.4175 -9.0153 -2.5207 -0.74607 3.4864 -0 0 -0 0 -5.5753 0 -0 0 -0 -0.99778 0.72409 31.758 -9.2827 -10.465 -15.205 -3.0405 10.248 1.352 -0 0 -0 -0 0 8.1375e-07 -0 0 -0 
2.9632 94.962 6.8837 -0 0 -0 -1.0471 0.72881 31.359 1.3612 -0.8913 -7.0148 1.3612 -0.8913 -7.0148 1.1509 -0.7376 -5.8938 -0 0 -0 0.93555 2.5081 -3.6919 -0.86073 -0.65749 -3.7977 -1.2853 -8.8245 3.9254 -0 0 -0 -3.2229 0.26958 -8.3683 2.6037 -3.219 -10.904 1.9797 -2.7448 2.5612 -3.2074 0.31152 1.9735 -2.0075 -0.097411 -3.952 -1.0471 0.72881 31.359 -5.4646 4.0677 -8.7569 -2.5071 -0.20437 3.4993 -0 0 -0 -1.6433e-06 -5.8322 1.3055e-06 -0 0 -0 -1.0471 0.72881 31.359 -9.3583 -10.636 -15.125 -3.0412 10.273 2.0384 -0 0 -0 -0 0 -0 -0 0 -0 
2.8607 95.024 7.2212 -0 0 -0 -1.2036 0.59331 31.131 1.5165 -0.78367 -7.0772 1.5165 -0.78367 -7.0772 1.2805 -0.64579 -5.9462 -0 0 -0 0.73651 1.7706 -3.7897 -1.3927 -0.86378 -3.2895 0.18423 -10.074 1.6215 -0 0 -0 -3.0733 -0.58891 -7.8577 2.8524 -3.5606 -11.154 1.789 -3.1344 2.3892 -2.906 0.49977 1.9867 -1.5579 0.15301 -3.9844 -1.2036 0.59331 31.131 -5.0042 3.7243 -8.3826 -2.5211 0.67294 3.3778 -0 0 -0 -9.741e-07 -6.3705 -2.1385e-06 -0 0 -0 -1.2036 0.59331 31.131 -8.696 -10.891 -15.598 -4.2862 10.296 4.1664 -0 0 -0 0 0 -8.0041e-08 -0 0 -0 
2.7888 95.079 7.5401 -0 0 -0 -1.2473 0.45874 30.818 1.522 -0.53141 -7.08 1.522 -0.53141 -7.0801 1.2831 -0.43381 -5.9482 -0 0 -0 0.62331 0.75825 -3.9303 -1.7375 -0.98062 -3.7679 2.8157 -12.53 -2.3609 -0 0 -0 -2.4273 -1.8841 -6.9904 2.5433 -3.2705 -12.06 1.9036 -3.4254 2.5745 -2.282 0.16345 1.8828 -0.96966 -0.034479 -4.0779 -1.2473 0.45874 30.818 -4.5596 3.6414 -7.9959 -2.4992 1.6576 3.4513 -0 0 -0 -4.4196e-08 -7.2472 -6.9788e-07 -0 0 -0 -1.2473 0.45874 30.818 -7.9167 -10.976 -15.801 -5.7136 9.8436 5.7923 -0 0 -0 -0 0 3.4685e-07 -0 0 -0 
2.7632 95.118 7.8246 -0 0 -0 -1.1479 0.32744 30.294 1.3649 -0.30043 -6.9388 1.3648 -0.30043 -6.9387 1.1491 -0.24129 -5.829 -0 0 -0 0.63574 -0.0084822 -4.9068 -1.226 -0.63546 -7.0424 5.5859 -16.698 -2.5038 -0 0 -0 -1.2913 -3.2599 -6.5601 1.9159 -2.5174 -13.688 1.9049 -3.2532 3.6619 -1.4876 0.050294 1.7595 -0.32568 -0.040116 -4.0738 -1.1479 0.32744 30.294 -4.9873 3.9102 -7.2865 -2.249 1.9658 3.3751 -0 0 -0 -1.296e-07 -7.6676 -1.934e-06 -0 0 -0 -1.1479 0.32744 30.294 -7.0677 -10.58 -15.081 -6.9269 8.7009 8.2044 -0 0 -0 0 0 -6.4033e-07 -0 0 -0 
2.7709 95.139 8.0984 -0 0 -0 -1.3052 0.23175 29.61 1.3149 -0.32575 -6.6931 1.3149 -0.32575 -6.6931 1.1072 -0.26334 -5.6227 -0 0 -0 0.61101 -0.30816 -6.8135 0.38484 -0.049883 -10.723 9.32 -22.149 0.088342 -0 0 -0 -0.35797 -4.2017 -6.7273 1.4921 -1.9511 -15.85 1.5405 -2.2527 5.2618 -1.004 0.60245 1.6892 0.16709 0.43461 -3.9374 -1.3052 0.23175 29.61 -5.1086 3.7556 -6.8668 -1.9054 2.2384 3.6126 -0 0 -0 9.8623e-07 -7.8053 1.9125e-06 -0 0 -0 -1.3052 0.23175 29.61 -7.0727 -10.03 -13.105 -7.3503 8.1288 10.841 -0 0 -0 0 0 -3.4685e-07 -0 0 -0 
2.7807 95.145 8.4237 -0 0 -0 -1.2374 0.28573 28.992 1.1421 -0.42221 -6.4737 1.1421 -0.42221 -6.4737 0.96266 -0.34602 -5.4385 -0 0 -0 1.1969 0.038275 -8.8698 0.49344 -0.43889 -10.514 14.224 -27.748 4.9609 -0 0 -0 0.45396 -4.8182 -7.2471 1.4903 -2.0194 -17.592 0.57225 -0.60986 6.208 -0.60618 1.0733 1.7554 0.461 0.77991 -3.6869 -1.2374 0.28573 28.992 -4.9969 3.4232 -6.813 -2.1926 2.6073 3.9716 -0 0 -0 -5.5889e-09 -7.9312 -8.0621e-08 -0 0 -0 -1.2374 0.28573 28.992 -8.0358 -9.7394 -11.073 -6.4972 8.022 11.313 -0 0 -0 0 0 -3.4685e-07 -0 0 -0 
2.7617 95.142 8.8619 -0 0 -0 -0.8793 0.26316 28.755 0.90508 -0.4022 -6.4963 0.90508 -0.4022 -6.4963 0.76342 -0.33099 -5.4573 -0 0 -0 1.5121 0.53054 -8.9578 -0.20838 -1.8926 -8.4723 20.413 -30.945 13.434 -0 0 -0 0.92394 -5.2785 -7.2374 1.8571 -2.6367 -18.526 -0.19261 1.0811 6.0093 -0.54913 0.98791 2.242 0.31078 0.70468 -3.2186 -0.8793 0.26316 28.755 -5.1819 3.3426 -6.8198 -2.3475 3.5353 4.0996 -0 0 -0 7.2941e-08 -8.6122 9.6871e-07 -0 0 -0 -0.8793 0.26316 28.755 -9.4712 -9.2461 -10.912 -4.9034 8.4563 10.778 -0 0 -0 0 0 -1.334e-07 -0 0 -0 
2.6862 95.139 9.4185 -0 0 -0 -0.5568 0.46345 28.689 0.62905 -0.39588 -6.6046 0.62905 -0.39588 -6.6046 0.53153 -0.32771 -5.5481 -0 0 -0 1.1082 0.8501 -7.4652 -0.73238 -3.9784 -5.3087 26.734 -30.997 23.65 -0 0 -0 1.1196 -5.5357 -6.8156 2.357 -3.456 -18.65 -0.24642 2.0702 4.5516 -0.36973 0.60753 2.9263 0.22229 0.31273 -2.6239 -0.5568 0.46345 28.689 -5.6467 3.5032 -6.7676 -2.2075 4.1856 4.0534 -0 0 -0 -1.0003e-06 -9.4254 -1.7423e-06 -0 0 -0 -0.5568 0.46345 28.689 -10.133 -9.0475 -11.004 -4.0458 8.8799 7.5969 -0 0 -0 0 0 -2.1344e-07 -0 0 -0 
